<svg id="svg" version="1.1" width="400" height="400" xmlns="http://www.w3.org/2000/svg" xmlns:xlink="http://www.w3.org/1999/xlink" style="display: block;"><g id="svgg"><path id="path0" d="M187.077 48.280 C 186.277 48.488,185.600 49.928,185.600 51.426 C 185.600 52.191,185.391 52.400,184.626 52.400 C 181.888 52.400,181.600 52.835,181.600 56.967 L 181.600 60.754 179.909 60.877 C 177.715 61.037,177.214 62.001,177.206 66.078 L 177.200 69.156 175.300 69.278 L 173.400 69.400 173.278 71.300 C 173.165 73.065,173.080 73.200,172.078 73.205 C 169.667 73.218,169.200 73.570,169.200 75.376 C 169.200 77.036,169.174 77.067,167.307 77.629 C 165.531 78.165,165.393 78.306,165.083 79.900 C 164.790 81.411,164.630 81.600,163.646 81.600 C 162.188 81.600,160.800 83.104,160.800 84.682 C 160.800 85.658,160.595 85.965,159.811 86.161 C 158.519 86.486,157.200 87.926,157.200 89.011 C 157.200 89.808,155.842 90.800,154.753 90.800 C 154.111 90.800,153.365 91.704,152.933 93.007 C 152.660 93.831,152.238 94.236,151.569 94.317 C 149.815 94.528,148.879 95.254,148.627 96.597 C 148.408 97.762,148.213 97.920,146.743 98.117 C 144.696 98.391,144.391 98.697,144.116 100.752 C 143.908 102.304,143.818 102.400,142.580 102.400 C 140.357 102.400,140.000 102.710,140.000 104.643 L 140.000 106.400 137.880 106.400 C 136.714 106.400,135.589 106.565,135.380 106.766 C 135.171 106.968,134.550 107.193,134.000 107.266 C 133.273 107.363,132.785 107.864,132.210 109.100 C 131.446 110.745,131.360 110.800,129.553 110.800 C 127.491 110.800,127.200 111.125,127.200 113.433 L 127.200 114.800 124.226 114.800 C 119.886 114.800,119.200 115.154,119.200 117.390 L 119.200 119.200 115.633 119.200 C 110.978 119.200,110.800 119.282,110.800 121.443 L 110.800 123.200 106.787 123.200 C 103.547 123.200,102.730 123.318,102.539 123.815 C 102.409 124.153,101.798 124.691,101.180 125.010 C 100.562 125.330,99.942 125.953,99.801 126.396 C 99.567 127.133,99.202 127.200,95.406 127.200 C 90.904 127.200,90.000 127.379,90.000 128.270 C 90.000 128.591,89.345 129.472,88.544 130.227 L 87.088 131.600 80.534 131.600 L 73.980 131.600 73.590 132.626 C 73.376 133.190,73.200 134.072,73.200 134.584 L 73.200 135.517 55.900 135.669 C 36.681 135.838,37.110 135.776,36.374 138.500 L 35.969 140.000 33.785 140.000 L 31.600 140.000 31.600 150.200 L 31.600 160.400 44.000 160.400 L 56.400 160.400 56.400 171.000 L 56.400 181.600 44.000 181.600 L 31.600 181.600 31.600 197.377 L 31.600 213.155 32.489 213.777 C 33.196 214.273,34.586 214.400,39.289 214.400 C 42.540 214.400,45.200 214.551,45.200 214.736 C 45.200 216.068,48.804 218.800,50.560 218.800 C 52.388 218.800,52.400 218.809,52.400 220.167 C 52.400 222.447,52.701 222.800,54.643 222.800 L 56.400 222.800 56.400 224.837 C 56.400 226.494,56.540 226.912,57.151 227.071 C 57.564 227.179,58.102 227.705,58.345 228.240 C 58.589 228.774,59.241 229.418,59.794 229.670 C 60.800 230.128,60.800 230.130,60.800 235.789 C 60.800 242.074,61.129 242.966,63.631 243.466 L 64.800 243.700 64.800 266.776 L 64.800 289.853 66.354 290.726 C 69.007 292.217,72.239 291.678,74.958 289.291 C 75.766 288.581,76.583 288.000,76.772 288.000 C 77.235 288.000,79.600 285.768,79.600 285.331 C 79.600 285.139,80.122 284.349,80.759 283.576 C 82.114 281.933,83.200 279.510,83.200 278.133 C 83.200 275.645,84.504 275.200,91.800 275.200 C 99.089 275.200,100.400 275.645,100.400 278.122 C 100.400 279.721,101.261 281.715,102.666 283.372 C 103.400 284.237,104.000 285.100,104.000 285.290 C 104.000 285.807,105.645 287.320,106.926 287.981 C 107.545 288.301,108.536 289.021,109.128 289.581 C 111.345 291.680,114.706 292.154,117.246 290.726 L 118.800 289.853 118.800 266.726 C 118.800 246.769,118.880 243.600,119.381 243.600 C 122.120 243.600,122.800 241.977,122.800 235.445 C 122.800 230.154,122.805 230.126,123.806 229.670 C 124.359 229.418,125.018 228.759,125.270 228.206 C 125.522 227.653,125.950 227.200,126.221 227.200 C 126.879 227.200,127.200 226.270,127.200 224.367 L 127.200 222.800 128.957 222.800 C 130.899 222.800,131.200 222.447,131.200 220.167 C 131.200 218.809,131.212 218.800,133.040 218.800 C 134.796 218.800,138.400 216.068,138.400 214.736 C 138.400 214.551,141.060 214.400,144.311 214.400 C 151.136 214.400,152.000 214.105,152.000 211.777 L 152.000 210.400 199.982 210.400 L 247.964 210.400 248.230 211.820 C 248.696 214.306,248.975 214.400,255.829 214.400 C 259.652 214.400,262.000 214.551,262.000 214.798 C 262.000 216.126,265.592 218.800,267.377 218.800 L 269.200 218.800 269.200 220.800 L 269.200 222.800 271.200 222.800 L 273.200 222.800 273.200 224.754 C 273.200 226.381,273.362 226.814,274.170 227.343 C 274.703 227.693,275.249 228.324,275.383 228.746 C 275.517 229.168,275.957 229.600,276.360 229.706 C 277.014 229.876,277.118 230.506,277.313 235.449 C 277.600 242.705,277.984 243.600,280.814 243.600 C 281.568 243.600,281.594 244.061,281.695 259.300 L 281.800 275.000 290.336 275.200 C 299.674 275.419,300.400 275.634,300.400 278.185 C 300.400 279.724,301.280 281.738,302.666 283.372 C 303.400 284.237,304.000 285.100,304.000 285.290 C 304.000 285.807,305.645 287.320,306.926 287.981 C 307.545 288.301,308.536 289.021,309.128 289.581 C 312.300 292.583,321.399 292.416,324.958 289.291 C 325.766 288.581,326.583 288.000,326.772 288.000 C 327.235 288.000,329.600 285.768,329.600 285.331 C 329.600 285.139,330.122 284.349,330.759 283.576 C 332.109 281.939,333.200 279.511,333.200 278.147 C 333.200 277.013,334.734 273.600,335.244 273.600 C 335.445 273.600,335.606 267.127,335.614 258.700 L 335.629 243.800 337.314 243.000 C 339.313 242.051,339.523 241.242,339.570 234.290 C 339.599 230.065,339.620 229.973,340.607 229.597 C 341.161 229.387,341.787 228.761,341.997 228.207 C 342.208 227.653,342.655 227.200,342.990 227.200 C 343.463 227.200,343.600 226.705,343.600 225.000 L 343.600 222.800 345.557 222.800 C 347.717 222.800,348.000 222.495,348.000 220.167 L 348.000 218.800 350.000 218.800 C 351.398 218.800,352.000 218.640,352.000 218.268 C 352.000 217.975,352.448 217.495,352.995 217.203 C 353.543 216.910,354.217 216.159,354.493 215.535 L 354.995 214.400 361.021 214.400 C 369.494 214.400,368.576 216.423,368.721 197.433 L 368.843 181.600 356.221 181.600 L 343.600 181.600 343.600 171.006 L 343.600 160.411 356.100 160.306 L 368.600 160.200 368.707 150.100 L 368.814 140.000 366.642 140.000 L 364.470 140.000 364.214 138.483 C 363.761 135.801,363.999 135.839,346.500 135.669 L 330.800 135.517 330.794 134.458 C 330.779 131.921,329.731 131.600,321.449 131.600 L 314.446 131.600 314.323 129.909 C 314.149 127.513,313.348 127.213,307.100 127.206 L 302.000 127.200 302.000 125.447 C 302.000 123.335,301.723 123.213,296.900 123.205 L 293.600 123.200 293.600 121.829 C 293.600 119.634,292.837 119.200,288.971 119.200 C 285.659 119.200,285.600 119.183,285.600 118.219 C 285.600 115.478,284.441 114.800,279.750 114.800 L 277.200 114.800 277.200 113.280 C 277.200 111.259,276.639 110.800,274.170 110.800 C 272.208 110.800,272.088 110.740,271.869 109.645 C 271.557 108.086,268.586 106.400,266.150 106.400 L 264.400 106.400 264.400 104.618 C 264.400 102.704,264.468 102.748,260.805 102.269 C 260.477 102.226,260.155 101.833,260.089 101.395 C 259.723 98.971,259.642 98.875,257.581 98.433 C 256.470 98.195,254.759 98.000,253.780 98.000 L 252.000 98.000 252.000 96.000 L 252.000 94.000 250.022 94.000 L 248.044 94.000 247.922 92.100 L 247.800 90.200 245.720 90.080 L 243.640 89.960 243.520 87.880 L 243.400 85.800 241.521 85.679 L 239.642 85.558 239.521 83.679 L 239.400 81.800 237.500 81.678 L 235.600 81.556 235.600 79.858 C 235.600 77.719,235.077 77.200,232.920 77.200 L 231.200 77.200 231.200 75.414 C 231.200 74.038,231.017 73.530,230.400 73.200 C 229.960 72.965,229.600 72.500,229.600 72.167 C 229.600 71.835,229.067 71.257,228.416 70.884 C 227.509 70.363,227.121 69.737,226.753 68.202 C 226.219 65.971,225.519 65.232,223.921 65.213 C 222.903 65.201,222.835 65.081,222.721 63.100 L 222.600 61.000 220.738 60.880 L 218.876 60.759 218.738 57.012 C 218.579 52.696,218.621 52.772,216.220 52.501 L 214.400 52.296 214.400 50.562 C 214.400 49.257,214.209 48.726,213.626 48.414 C 212.861 48.004,188.613 47.882,187.077 48.280 M206.400 75.200 L 206.400 81.600 200.000 81.600 L 193.600 81.600 193.600 75.200 L 193.600 68.800 200.000 68.800 L 206.400 68.800 206.400 75.200 M221.221 102.000 L 223.200 102.000 223.200 103.567 C 223.200 106.061,223.468 106.400,225.443 106.400 L 227.200 106.400 227.200 107.920 C 227.200 109.878,227.764 110.400,229.880 110.400 L 231.600 110.400 231.600 146.000 L 231.600 181.600 225.200 181.600 L 218.800 181.600 218.874 139.700 C 218.915 116.655,219.014 98.745,219.095 99.900 L 219.242 102.000 221.221 102.000 M181.600 141.800 L 181.600 181.600 175.200 181.600 L 168.800 181.600 168.800 148.000 L 168.800 114.400 170.320 114.400 C 171.156 114.400,172.056 114.184,172.320 113.920 C 172.584 113.656,172.800 112.756,172.800 111.920 C 172.800 110.450,172.846 110.400,174.200 110.400 C 175.947 110.400,177.200 109.230,177.200 107.600 C 177.200 106.533,177.333 106.400,178.400 106.400 C 180.030 106.400,181.200 105.147,181.200 103.400 C 181.200 102.630,181.290 102.000,181.400 102.000 C 181.510 102.000,181.600 119.910,181.600 141.800 M206.400 108.400 L 206.400 114.800 200.000 114.800 L 193.600 114.800 193.600 108.400 L 193.600 102.000 200.000 102.000 L 206.400 102.000 206.400 108.400 M248.000 124.520 C 248.000 126.676,248.519 127.200,250.656 127.200 C 252.331 127.200,252.357 127.222,252.687 128.889 C 253.001 130.477,253.123 130.599,254.711 130.913 L 256.400 131.247 256.400 156.424 L 256.400 181.600 250.000 181.600 L 243.600 181.600 243.600 152.200 L 243.600 122.800 245.800 122.800 L 248.000 122.800 248.000 124.520 M156.400 154.000 L 156.400 181.600 150.000 181.600 L 143.600 181.600 143.600 156.455 L 143.600 131.311 147.198 131.106 C 151.259 130.874,152.000 130.480,152.000 128.551 C 152.000 127.219,152.025 127.200,153.776 127.200 C 154.753 127.200,155.664 127.020,155.800 126.800 C 155.936 126.580,156.127 126.400,156.224 126.400 C 156.321 126.400,156.400 138.820,156.400 154.000 M206.400 141.800 L 206.400 148.000 200.000 148.000 L 193.600 148.000 193.600 141.800 L 193.600 135.600 200.000 135.600 L 206.400 135.600 206.400 141.800 M273.600 141.013 C 273.600 143.012,274.710 143.600,278.489 143.600 L 281.600 143.600 281.600 162.600 L 281.600 181.600 275.200 181.600 L 268.800 181.600 268.799 160.500 L 268.799 139.400 271.199 139.536 L 273.600 139.671 273.600 141.013 M131.600 160.600 L 131.600 181.600 125.200 181.600 L 118.800 181.600 118.800 164.227 L 118.800 146.854 119.976 146.017 C 120.623 145.556,121.265 144.824,121.403 144.390 C 121.620 143.706,122.017 143.600,124.367 143.600 C 128.693 143.600,130.800 142.593,130.800 140.524 C 130.800 140.016,130.980 139.600,131.200 139.600 C 131.462 139.600,131.600 146.867,131.600 160.600 M294.604 151.606 C 294.745 151.835,297.264 152.000,300.624 152.000 L 306.400 152.000 306.400 166.800 L 306.400 181.600 300.000 181.600 L 293.600 181.600 293.644 164.700 C 293.671 154.353,293.818 148.462,294.024 149.506 C 294.209 150.445,294.470 151.390,294.604 151.606 M106.400 166.800 L 106.400 181.600 99.994 181.600 L 93.589 181.600 93.694 168.913 L 93.800 156.225 95.486 155.892 C 97.030 155.587,97.194 155.434,97.438 154.079 C 97.825 151.938,97.681 152.000,102.224 152.000 L 106.400 152.000 106.400 166.800 M81.600 169.000 L 81.600 181.600 75.200 181.600 L 68.800 181.600 68.800 171.000 L 68.800 160.400 71.900 160.397 C 78.472 160.389,80.800 159.601,80.800 157.384 C 80.800 156.843,80.980 156.400,81.200 156.400 C 81.458 156.400,81.600 160.867,81.600 169.000 M323.489 158.098 C 323.877 160.061,324.387 160.274,328.900 160.353 L 331.600 160.400 331.600 171.000 L 331.600 181.600 325.200 181.600 L 318.800 181.600 318.800 169.000 L 318.800 156.400 320.976 156.400 L 323.153 156.400 323.489 158.098 M206.400 175.200 L 206.400 181.600 200.000 181.600 L 193.600 181.600 193.600 175.200 L 193.600 168.800 200.000 168.800 L 206.400 168.800 206.400 175.200 " stroke="none" fill="#c62828" fill-rule="evenodd"></path><path id="path1" d="M31.600 287.567 L 31.600 302.000 33.623 302.000 C 35.294 302.000,35.920 301.781,37.212 300.742 C 40.074 298.442,43.744 298.617,46.330 301.178 C 47.775 302.609,49.631 303.738,53.000 305.237 C 53.660 305.531,54.650 306.059,55.200 306.411 C 59.486 309.153,76.822 308.888,78.792 306.050 C 78.906 305.885,80.080 305.325,81.400 304.806 C 84.278 303.672,84.688 303.410,87.085 301.163 C 88.836 299.522,89.104 299.410,91.574 299.279 C 94.385 299.130,94.444 299.155,97.537 301.894 C 98.341 302.605,99.989 303.566,101.199 304.030 C 103.255 304.816,104.042 305.189,108.200 307.350 C 111.851 309.248,127.247 308.276,128.792 306.050 C 128.906 305.885,130.080 305.325,131.400 304.806 C 134.278 303.672,134.688 303.410,137.085 301.163 C 138.836 299.522,139.104 299.410,141.574 299.279 C 144.385 299.130,144.444 299.155,147.537 301.894 C 148.341 302.605,149.989 303.566,151.199 304.030 C 153.255 304.816,154.042 305.189,158.200 307.350 C 161.851 309.248,177.247 308.276,178.792 306.050 C 178.906 305.885,180.080 305.325,181.400 304.806 C 184.278 303.672,184.688 303.410,187.085 301.163 C 188.836 299.522,189.104 299.410,191.574 299.279 C 194.385 299.130,194.444 299.155,197.537 301.894 C 198.341 302.605,199.989 303.566,201.199 304.030 C 203.255 304.816,204.042 305.189,208.200 307.350 C 211.851 309.248,227.247 308.276,228.792 306.050 C 228.906 305.885,230.080 305.325,231.400 304.806 C 234.278 303.672,234.688 303.410,237.085 301.163 C 238.836 299.522,239.104 299.410,241.574 299.279 C 244.385 299.130,244.444 299.155,247.537 301.894 C 248.341 302.605,249.989 303.566,251.199 304.030 C 253.255 304.816,254.042 305.189,258.200 307.350 C 261.851 309.248,277.247 308.276,278.792 306.050 C 278.906 305.885,280.080 305.325,281.400 304.806 C 284.278 303.672,284.688 303.410,287.085 301.163 C 288.836 299.522,289.104 299.410,291.574 299.279 C 294.385 299.130,294.444 299.155,297.537 301.894 C 298.341 302.605,299.989 303.566,301.199 304.030 C 303.255 304.816,304.042 305.189,308.200 307.350 C 311.851 309.248,327.247 308.276,328.792 306.050 C 328.906 305.885,330.080 305.325,331.400 304.806 C 334.278 303.672,334.688 303.410,337.085 301.163 C 338.836 299.522,339.104 299.410,341.574 299.279 C 344.385 299.130,344.444 299.155,347.537 301.894 C 348.341 302.605,349.989 303.566,351.199 304.030 C 352.410 304.493,354.120 305.242,355.000 305.695 C 359.477 308.000,359.578 308.028,364.248 308.278 L 368.872 308.526 368.713 298.363 C 368.514 285.583,368.764 286.157,363.203 285.728 L 360.000 285.481 360.000 284.163 C 360.000 282.693,358.854 281.600,357.311 281.600 C 356.518 281.600,356.400 281.397,356.400 280.031 C 356.400 273.773,355.873 273.452,345.287 273.268 C 334.575 273.082,333.200 273.637,333.200 278.147 C 333.200 279.511,332.109 281.939,330.759 283.576 C 330.122 284.349,329.600 285.139,329.600 285.331 C 329.600 285.768,327.235 288.000,326.772 288.000 C 326.583 288.000,325.766 288.581,324.958 289.291 C 321.399 292.416,312.300 292.583,309.128 289.581 C 308.536 289.021,307.545 288.301,306.926 287.981 C 305.645 287.320,304.000 285.807,304.000 285.290 C 304.000 285.100,303.400 284.237,302.666 283.372 C 301.261 281.715,300.400 279.721,300.400 278.122 C 300.400 275.524,299.265 275.200,290.181 275.200 C 282.191 275.200,281.918 275.174,281.710 274.379 C 281.536 273.710,281.227 273.580,280.051 273.679 C 278.221 273.832,277.559 275.078,277.287 278.877 C 277.112 281.333,277.009 281.600,276.235 281.600 C 274.742 281.600,273.600 282.711,273.600 284.164 L 273.600 285.482 270.200 285.743 C 268.330 285.887,265.270 285.887,263.400 285.743 L 260.000 285.482 260.000 284.164 C 260.000 282.693,258.854 281.600,257.311 281.600 C 256.518 281.600,256.400 281.397,256.400 280.031 C 256.400 273.573,256.119 273.427,243.400 273.278 C 227.753 273.094,227.700 273.112,227.287 278.877 C 227.112 281.333,227.009 281.600,226.235 281.600 C 224.742 281.600,223.600 282.711,223.600 284.164 L 223.600 285.482 220.200 285.743 C 218.330 285.887,215.270 285.887,213.400 285.743 L 210.000 285.482 210.000 284.164 C 210.000 282.693,208.854 281.600,207.311 281.600 C 206.518 281.600,206.400 281.397,206.400 280.031 C 206.400 273.573,206.119 273.427,193.400 273.278 C 177.753 273.094,177.700 273.112,177.287 278.877 C 177.112 281.333,177.009 281.600,176.235 281.600 C 174.742 281.600,173.600 282.711,173.600 284.164 L 173.600 285.482 170.200 285.743 C 168.330 285.887,165.270 285.887,163.400 285.743 L 160.000 285.482 160.000 284.164 C 160.000 282.693,158.854 281.600,157.311 281.600 C 156.518 281.600,156.400 281.397,156.400 280.031 C 156.400 273.573,156.119 273.427,143.400 273.278 C 127.753 273.094,127.700 273.112,127.287 278.877 C 127.112 281.333,127.009 281.600,126.235 281.600 C 124.724 281.600,123.600 282.710,123.600 284.203 L 123.600 285.560 121.300 285.680 L 119.000 285.800 118.881 287.837 C 118.643 291.929,112.728 292.988,109.128 289.581 C 108.536 289.021,107.545 288.301,106.926 287.981 C 105.645 287.320,104.000 285.807,104.000 285.290 C 104.000 285.100,103.400 284.237,102.666 283.372 C 101.261 281.715,100.400 279.721,100.400 278.122 C 100.400 275.645,99.089 275.200,91.800 275.200 C 84.504 275.200,83.200 275.645,83.200 278.133 C 83.200 279.510,82.114 281.933,80.759 283.576 C 80.122 284.349,79.600 285.139,79.600 285.331 C 79.600 285.768,77.235 288.000,76.772 288.000 C 76.583 288.000,75.766 288.581,74.958 289.291 C 70.788 292.952,64.969 292.125,64.719 287.837 L 64.600 285.800 62.300 285.680 L 60.000 285.560 60.000 284.203 C 60.000 282.691,58.873 281.600,57.311 281.600 C 56.518 281.600,56.400 281.397,56.400 280.031 C 56.400 273.521,56.214 273.429,42.700 273.267 L 31.600 273.134 31.600 287.567 M31.600 348.902 L 31.600 364.523 37.100 364.294 C 40.125 364.167,43.815 364.164,45.300 364.287 L 48.000 364.510 48.006 365.955 C 48.018 368.755,46.902 368.588,66.385 368.712 C 77.923 368.786,84.000 368.686,84.000 368.425 C 84.000 368.205,84.262 368.126,84.583 368.249 C 85.245 368.503,85.747 367.072,85.532 365.543 C 85.412 364.685,85.562 364.590,87.200 364.490 C 88.190 364.430,89.360 364.214,89.800 364.009 C 92.376 362.813,94.562 362.714,94.140 363.813 C 93.960 364.281,94.319 364.400,95.906 364.400 C 97.896 364.400,97.898 364.401,98.149 365.900 C 98.632 368.788,97.321 368.588,116.585 368.716 C 128.105 368.793,134.000 368.695,134.000 368.429 C 134.000 368.207,134.262 368.126,134.583 368.249 C 135.245 368.503,135.747 367.072,135.532 365.543 C 135.412 364.685,135.562 364.590,137.200 364.490 C 138.190 364.430,139.360 364.214,139.800 364.009 C 142.376 362.813,144.562 362.714,144.140 363.813 C 143.960 364.281,144.319 364.400,145.906 364.400 C 147.896 364.400,147.898 364.401,148.149 365.900 C 148.632 368.788,147.321 368.588,166.585 368.716 C 178.105 368.793,184.000 368.695,184.000 368.429 C 184.000 368.207,184.262 368.126,184.583 368.249 C 185.245 368.503,185.747 367.072,185.532 365.543 C 185.412 364.685,185.562 364.590,187.200 364.490 C 188.190 364.430,189.360 364.214,189.800 364.009 C 192.376 362.813,194.562 362.714,194.140 363.813 C 193.960 364.281,194.319 364.400,195.906 364.400 C 197.896 364.400,197.898 364.401,198.149 365.900 C 198.632 368.788,197.321 368.588,216.585 368.716 C 228.105 368.793,234.000 368.695,234.000 368.429 C 234.000 368.207,234.262 368.126,234.583 368.249 C 235.245 368.503,235.747 367.072,235.532 365.543 C 235.412 364.685,235.562 364.590,237.200 364.490 C 238.190 364.430,239.360 364.214,239.800 364.009 C 242.376 362.813,244.562 362.714,244.140 363.813 C 243.960 364.281,244.319 364.400,245.906 364.400 C 247.896 364.400,247.898 364.401,248.149 365.900 C 248.632 368.788,247.321 368.588,266.585 368.716 C 278.105 368.793,284.000 368.695,284.000 368.429 C 284.000 368.207,284.262 368.126,284.583 368.249 C 285.245 368.503,285.747 367.072,285.532 365.543 C 285.412 364.685,285.562 364.590,287.200 364.490 C 288.190 364.430,289.360 364.214,289.800 364.009 C 292.376 362.813,294.562 362.714,294.140 363.813 C 293.960 364.281,294.319 364.400,295.906 364.400 C 297.896 364.400,297.898 364.401,298.149 365.900 C 298.632 368.788,297.321 368.588,316.585 368.716 C 328.105 368.793,334.000 368.695,334.000 368.429 C 334.000 368.207,334.262 368.126,334.583 368.249 C 335.245 368.503,335.747 367.072,335.532 365.543 C 335.412 364.685,335.562 364.590,337.200 364.490 C 338.190 364.430,339.360 364.214,339.800 364.009 C 342.376 362.813,344.562 362.714,344.140 363.813 C 343.960 364.281,344.319 364.400,345.906 364.400 C 347.896 364.400,347.898 364.401,348.149 365.900 C 348.621 368.722,348.135 368.600,358.885 368.600 L 368.600 368.600 368.707 359.360 L 368.814 350.120 365.428 349.881 C 362.063 349.643,360.223 349.033,359.216 347.819 C 358.926 347.470,358.040 346.885,357.245 346.518 C 356.450 346.150,355.498 345.479,355.130 345.025 C 351.665 340.759,350.454 338.525,350.418 336.336 C 350.376 333.821,348.670 333.200,341.800 333.200 C 335.147 333.200,333.200 333.854,333.200 336.089 C 333.200 337.762,332.204 340.247,330.922 341.772 C 330.195 342.637,329.600 343.500,329.600 343.690 C 329.600 344.129,327.746 346.000,327.311 346.000 C 327.132 346.000,326.121 346.714,325.065 347.587 C 321.378 350.634,311.670 350.776,309.216 347.819 C 308.926 347.470,308.040 346.885,307.245 346.518 C 306.450 346.150,305.498 345.479,305.130 345.025 C 301.665 340.759,300.454 338.525,300.418 336.336 C 300.376 333.821,298.670 333.200,291.800 333.200 C 285.147 333.200,283.200 333.854,283.200 336.089 C 283.200 337.762,282.204 340.247,280.922 341.772 C 280.195 342.637,279.600 343.500,279.600 343.690 C 279.600 344.129,277.746 346.000,277.311 346.000 C 277.132 346.000,276.121 346.714,275.065 347.587 C 271.378 350.634,261.670 350.776,259.216 347.819 C 258.926 347.470,258.040 346.885,257.245 346.518 C 256.450 346.150,255.498 345.479,255.130 345.025 C 251.665 340.759,250.454 338.525,250.418 336.336 C 250.376 333.821,248.670 333.200,241.800 333.200 C 235.147 333.200,233.200 333.854,233.200 336.089 C 233.200 337.762,232.204 340.247,230.922 341.772 C 230.195 342.637,229.600 343.500,229.600 343.690 C 229.600 344.129,227.746 346.000,227.311 346.000 C 227.132 346.000,226.121 346.714,225.065 347.587 C 221.378 350.634,211.670 350.776,209.216 347.819 C 208.926 347.470,208.040 346.885,207.245 346.518 C 206.450 346.150,205.498 345.479,205.130 345.025 C 201.665 340.759,200.454 338.525,200.418 336.336 C 200.376 333.821,198.670 333.200,191.800 333.200 C 185.147 333.200,183.200 333.854,183.200 336.089 C 183.200 337.762,182.204 340.247,180.922 341.772 C 180.195 342.637,179.600 343.500,179.600 343.690 C 179.600 344.129,177.746 346.000,177.311 346.000 C 177.132 346.000,176.121 346.714,175.065 347.587 C 171.378 350.634,161.670 350.776,159.216 347.819 C 158.926 347.470,158.040 346.885,157.245 346.518 C 156.450 346.150,155.498 345.479,155.130 345.025 C 151.665 340.759,150.454 338.525,150.418 336.336 C 150.376 333.821,148.670 333.200,141.800 333.200 C 135.147 333.200,133.200 333.854,133.200 336.089 C 133.200 337.762,132.204 340.247,130.922 341.772 C 130.195 342.637,129.600 343.500,129.600 343.690 C 129.600 344.129,127.746 346.000,127.311 346.000 C 127.132 346.000,126.121 346.714,125.065 347.587 C 121.378 350.634,111.670 350.776,109.216 347.819 C 108.926 347.470,108.040 346.885,107.245 346.518 C 106.450 346.150,105.498 345.479,105.130 345.025 C 101.665 340.759,100.454 338.525,100.418 336.336 C 100.376 333.821,98.670 333.200,91.800 333.200 C 85.147 333.200,83.200 333.854,83.200 336.089 C 83.200 337.762,82.204 340.247,80.922 341.772 C 80.195 342.637,79.600 343.500,79.600 343.690 C 79.600 344.129,77.746 346.000,77.311 346.000 C 77.132 346.000,76.121 346.714,75.065 347.587 C 71.378 350.634,61.670 350.776,59.216 347.819 C 58.926 347.470,58.040 346.885,57.245 346.518 C 56.450 346.150,55.498 345.479,55.130 345.025 C 51.665 340.759,50.454 338.525,50.418 336.336 C 50.406 335.649,49.957 334.899,49.152 334.221 L 47.904 333.171 39.752 333.226 L 31.600 333.280 31.600 348.902 " stroke="none" fill="#03a9f4" fill-rule="evenodd"></path><path id="path2" d="M38.600 299.829 C 37.940 300.172,37.028 300.801,36.574 301.227 C 35.977 301.786,35.173 302.000,33.674 302.000 L 31.600 302.000 31.600 317.600 L 31.600 333.200 32.500 333.224 C 32.995 333.237,36.659 333.227,40.643 333.202 L 47.886 333.156 49.143 334.214 C 49.956 334.898,50.406 335.647,50.418 336.336 C 50.454 338.525,51.665 340.759,55.130 345.025 C 55.498 345.479,56.450 346.150,57.245 346.518 C 58.040 346.885,58.926 347.470,59.216 347.819 C 61.670 350.776,71.378 350.634,75.065 347.587 C 76.121 346.714,77.132 346.000,77.311 346.000 C 77.746 346.000,79.600 344.129,79.600 343.690 C 79.600 343.500,80.195 342.637,80.922 341.772 C 82.204 340.247,83.200 337.762,83.200 336.089 C 83.200 333.854,85.147 333.200,91.800 333.200 C 98.670 333.200,100.376 333.821,100.418 336.336 C 100.454 338.525,101.665 340.759,105.130 345.025 C 105.498 345.479,106.450 346.150,107.245 346.518 C 108.040 346.885,108.926 347.470,109.216 347.819 C 111.670 350.776,121.378 350.634,125.065 347.587 C 126.121 346.714,127.132 346.000,127.311 346.000 C 127.746 346.000,129.600 344.129,129.600 343.690 C 129.600 343.500,130.195 342.637,130.922 341.772 C 132.204 340.247,133.200 337.762,133.200 336.089 C 133.200 333.854,135.147 333.200,141.800 333.200 C 148.670 333.200,150.376 333.821,150.418 336.336 C 150.454 338.525,151.665 340.759,155.130 345.025 C 155.498 345.479,156.450 346.150,157.245 346.518 C 158.040 346.885,158.926 347.470,159.216 347.819 C 161.670 350.776,171.378 350.634,175.065 347.587 C 176.121 346.714,177.132 346.000,177.311 346.000 C 177.746 346.000,179.600 344.129,179.600 343.690 C 179.600 343.500,180.195 342.637,180.922 341.772 C 182.204 340.247,183.200 337.762,183.200 336.089 C 183.200 333.854,185.147 333.200,191.800 333.200 C 198.670 333.200,200.376 333.821,200.418 336.336 C 200.454 338.525,201.665 340.759,205.130 345.025 C 205.498 345.479,206.450 346.150,207.245 346.518 C 208.040 346.885,208.926 347.470,209.216 347.819 C 211.670 350.776,221.378 350.634,225.065 347.587 C 226.121 346.714,227.132 346.000,227.311 346.000 C 227.746 346.000,229.600 344.129,229.600 343.690 C 229.600 343.500,230.195 342.637,230.922 341.772 C 232.204 340.247,233.200 337.762,233.200 336.089 C 233.200 333.854,235.147 333.200,241.800 333.200 C 248.670 333.200,250.376 333.821,250.418 336.336 C 250.454 338.525,251.665 340.759,255.130 345.025 C 255.498 345.479,256.450 346.150,257.245 346.518 C 258.040 346.885,258.926 347.470,259.216 347.819 C 261.670 350.776,271.378 350.634,275.065 347.587 C 276.121 346.714,277.132 346.000,277.311 346.000 C 277.746 346.000,279.600 344.129,279.600 343.690 C 279.600 343.500,280.195 342.637,280.922 341.772 C 282.204 340.247,283.200 337.762,283.200 336.089 C 283.200 333.854,285.147 333.200,291.800 333.200 C 298.670 333.200,300.376 333.821,300.418 336.336 C 300.454 338.525,301.665 340.759,305.130 345.025 C 305.498 345.479,306.450 346.150,307.245 346.518 C 308.040 346.885,308.926 347.470,309.216 347.819 C 311.670 350.776,321.378 350.634,325.065 347.587 C 326.121 346.714,327.132 346.000,327.311 346.000 C 327.746 346.000,329.600 344.129,329.600 343.690 C 329.600 343.500,330.195 342.637,330.922 341.772 C 332.204 340.247,333.200 337.762,333.200 336.089 C 333.200 333.854,335.147 333.200,341.800 333.200 C 348.670 333.200,350.376 333.821,350.418 336.336 C 350.454 338.525,351.665 340.759,355.130 345.025 C 355.498 345.479,356.450 346.150,357.245 346.518 C 358.040 346.885,358.926 347.470,359.216 347.819 C 360.223 349.032,362.062 349.643,365.421 349.880 L 368.800 350.119 368.800 329.321 L 368.800 308.522 364.212 308.277 C 359.581 308.028,359.474 307.998,355.000 305.695 C 354.120 305.242,352.410 304.493,351.199 304.030 C 349.989 303.566,348.341 302.605,347.537 301.894 C 344.444 299.155,344.385 299.130,341.574 299.279 C 339.104 299.410,338.836 299.522,337.085 301.163 C 334.688 303.410,334.278 303.672,331.400 304.806 C 330.080 305.325,328.906 305.885,328.792 306.050 C 327.247 308.276,311.851 309.248,308.200 307.350 C 304.042 305.189,303.255 304.816,301.199 304.030 C 299.989 303.566,298.341 302.605,297.537 301.894 C 294.444 299.155,294.385 299.130,291.574 299.279 C 289.104 299.410,288.836 299.522,287.085 301.163 C 284.688 303.410,284.278 303.672,281.400 304.806 C 280.080 305.325,278.906 305.885,278.792 306.050 C 277.247 308.276,261.851 309.248,258.200 307.350 C 254.042 305.189,253.255 304.816,251.199 304.030 C 249.989 303.566,248.341 302.605,247.537 301.894 C 244.444 299.155,244.385 299.130,241.574 299.279 C 239.104 299.410,238.836 299.522,237.085 301.163 C 234.688 303.410,234.278 303.672,231.400 304.806 C 230.080 305.325,228.906 305.885,228.792 306.050 C 227.247 308.276,211.851 309.248,208.200 307.350 C 204.042 305.189,203.255 304.816,201.199 304.030 C 199.989 303.566,198.341 302.605,197.537 301.894 C 194.444 299.155,194.385 299.130,191.574 299.279 C 189.104 299.410,188.836 299.522,187.085 301.163 C 184.688 303.410,184.278 303.672,181.400 304.806 C 180.080 305.325,178.906 305.885,178.792 306.050 C 177.247 308.276,161.851 309.248,158.200 307.350 C 154.042 305.189,153.255 304.816,151.199 304.030 C 149.989 303.566,148.341 302.605,147.537 301.894 C 144.444 299.155,144.385 299.130,141.574 299.279 C 139.104 299.410,138.836 299.522,137.085 301.163 C 134.688 303.410,134.278 303.672,131.400 304.806 C 130.080 305.325,128.906 305.885,128.792 306.050 C 127.247 308.276,111.851 309.248,108.200 307.350 C 104.042 305.189,103.255 304.816,101.199 304.030 C 99.989 303.566,98.341 302.605,97.537 301.894 C 94.444 299.155,94.385 299.130,91.574 299.279 C 89.104 299.410,88.836 299.522,87.085 301.163 C 84.688 303.410,84.278 303.672,81.400 304.806 C 80.080 305.325,78.906 305.885,78.792 306.050 C 76.822 308.888,59.486 309.153,55.200 306.411 C 54.650 306.059,53.660 305.531,53.000 305.237 C 49.746 303.789,47.708 302.601,46.800 301.622 C 44.485 299.126,41.294 298.428,38.600 299.829 " stroke="none" fill="#81d4fa" fill-rule="evenodd"></path></g></svg>